<?xml version="1.0" encoding="UTF-8"?>
<!DOCTYPE svg PUBLIC "-//W3C//DTD SVG 1.1//EN" "http://www.w3.org/Graphics/SVG/1.1/DTD/svg11.dtd">
<!-- Creator: CorelDRAW -->
<svg xmlns="http://www.w3.org/2000/svg" xml:space="preserve" width="177px" height="177px" style="shape-rendering:geometricPrecision; text-rendering:geometricPrecision; image-rendering:optimizeQuality; fill-rule:evenodd; clip-rule:evenodd"
viewBox="0 0 177 177"
 xmlns:xlink="http://www.w3.org/1999/xlink">
 <defs>
  <style type="text/css">
   <![CDATA[
    .fil0 {fill:black;fill-rule:nonzero}
    .fil1 {fill:white;fill-rule:nonzero}
   ]]>
  </style>
 </defs>
<symbol id="Símbolo5" viewBox="88.5 -2389.51 3504.6 2478">
 <polygon class="fil0" points="88.5,88.4953 3593.1,88.4953 3593.1,-2389.51 88.5,-2389.51 "/>
</symbol>
<symbol id="Símbolo7" viewBox="-173.849 -483.647 552.608 390.735">
 <polygon class="fil0" points="-173.849,-92.912 378.759,-92.912 378.759,-483.647 -173.849,-483.647 "/>
</symbol>
<symbol id="Símbolo6" viewBox="-173.849 -483.647 552.608 390.735">
 <polygon class="fil0" points="-173.849,-92.912 378.759,-92.912 378.759,-483.647 -173.849,-483.647 "/>
</symbol>
<symbol id="Símbolo11" viewBox="-173.849 -483.647 552.608 390.735">
 <polygon class="fil0" points="-173.849,-92.912 378.759,-92.912 378.759,-483.647 -173.849,-483.647 "/>
</symbol>
<symbol id="Fm0-136-0" viewBox="88.5 -2389.51 3504.6 2478">
 <polygon class="fil0" points="88.5,88.4953 3593.1,88.4953 3593.1,-2389.51 88.5,-2389.51 "/>
</symbol>
<symbol id="Símbolo3" viewBox="88.5 -2389.51 3504.6 2478">
 <polygon class="fil0" points="88.5,88.4953 3593.1,88.4953 3593.1,-2389.51 88.5,-2389.51 "/>
</symbol>
<symbol id="Símbolo1" viewBox="88.5 -2389.51 3504.6 2478">
 <polygon class="fil0" points="88.5,88.4953 3593.1,88.4953 3593.1,-2389.51 88.5,-2389.51 "/>
</symbol>
<symbol id="Símbolo4" viewBox="88.5 -2389.51 3504.6 2478">
 <polygon class="fil0" points="88.5,88.4953 3593.1,88.4953 3593.1,-2389.51 88.5,-2389.51 "/>
</symbol>
<symbol id="Símbolo10" viewBox="-173.849 -483.647 552.608 390.735">
 <polygon class="fil0" points="-173.849,-92.912 378.759,-92.912 378.759,-483.647 -173.849,-483.647 "/>
</symbol>
<symbol id="Símbolo12" viewBox="-173.849 -483.647 552.608 390.735">
 <polygon class="fil0" points="-173.849,-92.912 378.759,-92.912 378.759,-483.647 -173.849,-483.647 "/>
</symbol>
<symbol id="Símbolo9" viewBox="-173.849 -483.647 552.608 390.735">
 <polygon class="fil0" points="-173.849,-92.912 378.759,-92.912 378.759,-483.647 -173.849,-483.647 "/>
</symbol>
<symbol id="Símbolo2" viewBox="88.5 -2389.51 3504.6 2478">
 <polygon class="fil0" points="88.5,88.4953 3593.1,88.4953 3593.1,-2389.51 88.5,-2389.51 "/>
</symbol>
<symbol id="Símbolo8" viewBox="-173.849 -483.647 552.608 390.735">
 <polygon class="fil0" points="-173.849,-92.912 378.759,-92.912 378.759,-483.647 -173.849,-483.647 "/>
</symbol>
 <g id="Capa_x0020_1">
  <metadata id="CorelCorpID_0Corel-Layer"/>
  <g id="_263550384">
   <path id="_209705800" class="fil1" d="M37.7152 90.0151l0 51.4173c0,5.92242 3.61434,10.7345 8.0712,10.7345l85.0945 0c4.4604,0 8.07474,-4.81204 8.07474,-10.7345l0 -51.4173 -101.24 0zm16.1459 19.7862l68.9498 0 0 20.8966 -68.9498 0 0 -20.8966zm0 20.8919l0 -20.8919 0 20.8919z"/>
   <path id="_207213240" class="fil1" d="M101.838 25.809l-74.825 40.5283c-3.91996,2.12282 -5.3749,7.02218 -3.25326,10.941l14.3854 26.5559 89.0204 -48.2172 -14.383 -26.5571c-2.124,-3.9176 -7.02336,-5.3749 -10.9445,-3.2509zm4.03678 24.4l-60.6272 32.8394 -3.4456 -6.36256 60.6272 -32.8382 3.4456 6.36138z"/>
  </g>
 </g>
</svg>
