<?xml version="1.0" encoding="UTF-8"?>
<!DOCTYPE svg PUBLIC "-//W3C//DTD SVG 1.1//EN" "http://www.w3.org/Graphics/SVG/1.1/DTD/svg11.dtd">
<!-- Creator: CorelDRAW -->
<svg xmlns="http://www.w3.org/2000/svg" xml:space="preserve" width="177px" height="177px" style="shape-rendering:geometricPrecision; text-rendering:geometricPrecision; image-rendering:optimizeQuality; fill-rule:evenodd; clip-rule:evenodd"
viewBox="0 0 177 177"
 xmlns:xlink="http://www.w3.org/1999/xlink">
 <defs>
  <style type="text/css">
   <![CDATA[
    .fil0 {fill:black;fill-rule:nonzero}
    .fil1 {fill:#ED0677;fill-rule:nonzero}
   ]]>
  </style>
 </defs>
<symbol id="Fm0-136-0" viewBox="88.5 -2389.51 3504.6 2478">
 <polygon class="fil0" points="88.5,88.4953 3593.1,88.4953 3593.1,-2389.51 88.5,-2389.51 "/>
</symbol>
<symbol id="Símbolo1" viewBox="88.5 -2389.51 3504.6 2478">
 <polygon class="fil0" points="88.5,88.4953 3593.1,88.4953 3593.1,-2389.51 88.5,-2389.51 "/>
</symbol>
 <g id="Capa_x0020_1">
  <metadata id="CorelCorpID_0Corel-Layer"/>
  <path class="fil1" d="M144.542 74.6374c-2.3777,-7.33842 -9.81642,-9.51198 -13.9877,-9.65358l-20.6724 0 -7.97562 -20.9969c-1.357,-3.8586 -5.60736,-10.0654 -13.3954,-10.0654 -7.72664,0 -12.0938,6.39796 -13.5216,10.3321l-7.88004 20.7302 -20.6642 0c-4.17484,0.1416 -11.61,2.31516 -13.9818,9.65358 -2.42372,7.4222 2.16884,13.3718 5.41974,15.8568l16.022 13.5995 -4.89464 20.1391c-1.16584,4.0179 -1.39122,11.7516 4.84862,16.2934 2.29864,1.66144 5.01264,2.55234 7.847,2.55234 4.36246,0 7.78092,-2.0532 8.90074,-2.79778l17.9041 -11.0566 17.8829 11.0566c1.1151,0.74458 4.54536,2.79778 8.90428,2.79778 2.83082,0 5.5401,-0.8909 7.84228,-2.55234 6.23984,-4.54182 6.01918,-12.2755 4.86278,-16.2934l-4.89582 -20.1391 16.002 -13.5995c3.26388,-2.48508 7.84228,-8.43464 5.43272,-15.8568zm-25.5435 8.85l-15.4651 13.0838 4.779 20.1355c0.02124,0.07906 0.09204,0.94518 -0.52864,1.47382 -0.84842,0.72806 -1.75584,0.18762 -1.8644,0.12508l-17.3377 -10.6861 -17.4628 10.6778c0,0 -0.75402,0.62776 -1.80304,-0.0295 -0.83308,-0.51566 -0.6077,-1.60244 -0.6077,-1.60244l4.88284 -20.0942 -15.5524 -13.0496c0,0 -0.92394,-0.68676 -0.59944,-1.7405 0.33748,-1.11156 1.49506,-1.1151 1.49506,-1.1151l20.3349 0.01652 7.77148 -20.486c0,0 0.3835,-0.95226 1.44432,-0.95226 1.04548,0 1.49506,0.96996 1.49506,0.96996l7.80098 20.4683 20.447 0c0,0 0.97822,0.08732 1.32042,1.08206 0.34102,0.99474 -0.54988,1.7228 -0.54988,1.7228z"/>
 </g>
</svg>
