<?xml version="1.0" encoding="UTF-8"?>
<!DOCTYPE svg PUBLIC "-//W3C//DTD SVG 1.1//EN" "http://www.w3.org/Graphics/SVG/1.1/DTD/svg11.dtd">
<!-- Creator: CorelDRAW -->
<svg xmlns="http://www.w3.org/2000/svg" xml:space="preserve" width="177px" height="177px" style="shape-rendering:geometricPrecision; text-rendering:geometricPrecision; image-rendering:optimizeQuality; fill-rule:evenodd; clip-rule:evenodd"
viewBox="0 0 177 177"
 xmlns:xlink="http://www.w3.org/1999/xlink">
 <defs>
  <style type="text/css">
   <![CDATA[
    .fil0 {fill:black;fill-rule:nonzero}
    .fil1 {fill:white;fill-rule:nonzero}
   ]]>
  </style>
 </defs>
<symbol id="Símbolo4" viewBox="88.5 -2389.51 3504.6 2478">
 <polygon class="fil0" points="88.5,88.4953 3593.1,88.4953 3593.1,-2389.51 88.5,-2389.51 "/>
</symbol>
<symbol id="Símbolo3" viewBox="88.5 -2389.51 3504.6 2478">
 <polygon class="fil0" points="88.5,88.4953 3593.1,88.4953 3593.1,-2389.51 88.5,-2389.51 "/>
</symbol>
<symbol id="Fm0-136-0" viewBox="88.5 -2389.51 3504.6 2478">
 <polygon class="fil0" points="88.5,88.4953 3593.1,88.4953 3593.1,-2389.51 88.5,-2389.51 "/>
</symbol>
<symbol id="Símbolo2" viewBox="88.5 -2389.51 3504.6 2478">
 <polygon class="fil0" points="88.5,88.4953 3593.1,88.4953 3593.1,-2389.51 88.5,-2389.51 "/>
</symbol>
<symbol id="Símbolo1" viewBox="88.5 -2389.51 3504.6 2478">
 <polygon class="fil0" points="88.5,88.4953 3593.1,88.4953 3593.1,-2389.51 88.5,-2389.51 "/>
</symbol>
 <g id="Capa_x0020_1">
  <metadata id="CorelCorpID_0Corel-Layer"/>
  <path class="fil1" d="M102.039 106.847c1.60244,-4.65392 5.98614,-7.7762 10.8985,-7.7762 4.9619,0 9.34914,3.16004 10.9233,7.88004 0.38232,1.15758 0.59118,2.3895 0.59118,3.6344l10.7722 0c0,-2.41428 -0.39058,-4.78726 -1.14814,-7.05168 -3.04322,-9.11196 -11.5392,-15.2362 -21.1385,-15.2362 -5.07518,0 -9.85418,1.72398 -13.6797,4.6964l0 16.0055 0.72924 -0.12862c0,-1.2862 1.63548,-0.83308 2.05202,-2.0237z"/>
  <path class="fil1" d="M155.426 44.4128l-56.1645 0 0 19.2316 46.5439 0 0 29.8056c-0.41182,17.7873 -14.9813,32.1361 -32.8689,32.1361 -11.5522,0 -21.7214,-5.97788 -27.599,-15.0025l-21.2931 0c7.31836,19.9149 26.4709,34.1598 48.8921,34.1598 28.2775,0 51.3524,-22.6666 52.0309,-50.786l0.07434 0 0 -39.9288c0,-5.30764 -4.30464,-9.61582 -9.61582,-9.61582z"/>
  <path class="fil1" d="M74.9607 76.7059c-1.60244,4.64566 -5.98614,7.77266 -10.8938,7.77266 -4.96308,0 -9.35386,-3.16358 -10.9233,-7.88004 -0.3953,-1.1623 -0.58764,-2.3895 -0.58764,-3.6344l-10.7687 0c0,2.41074 0.38232,4.78726 1.14106,7.05168 3.04204,9.10842 11.5392,15.2362 21.1385,15.2362 9.50254,0 17.9749,-6.04042 21.0795,-15.032 0.80004,-2.32696 1.20714,-4.76602 1.20714,-7.25582l-10.7687 0c0,1.29092 -0.20768,2.54762 -0.62422,3.74178z"/>
  <path class="fil1" d="M116.182 34.7935c0,-5.30764 -4.30818,-9.617 -9.62054,-9.617l-84.9824 0c-5.31236,0 -9.62054,4.30936 -9.62054,9.617l0 38.8303 0.0413 0c0.10384,28.6268 23.4159,51.8881 52.0687,51.8881 28.2811,0 51.3512,-22.6619 52.0345,-50.7848l0.07906 0 0 -39.9336zm-52.1135 71.5658c-18.0918,0 -32.8111,-14.6733 -32.9067,-32.7356l0.03658 0 0 -29.2109 65.7425 0 0 29.8021c-0.41536,17.7956 -14.9813,32.1444 -32.8724,32.1444z"/>
 </g>
</svg>
