<?xml version="1.0" encoding="UTF-8"?>
<!DOCTYPE svg PUBLIC "-//W3C//DTD SVG 1.1//EN" "http://www.w3.org/Graphics/SVG/1.1/DTD/svg11.dtd">
<!-- Creator: CorelDRAW -->
<svg xmlns="http://www.w3.org/2000/svg" xml:space="preserve" width="177px" height="177px" style="shape-rendering:geometricPrecision; text-rendering:geometricPrecision; image-rendering:optimizeQuality; fill-rule:evenodd; clip-rule:evenodd"
viewBox="0 0 177 177"
 xmlns:xlink="http://www.w3.org/1999/xlink">
 <defs>
  <style type="text/css">
   <![CDATA[
    .fil0 {fill:black;fill-rule:nonzero}
    .fil1 {fill:white;fill-rule:nonzero}
   ]]>
  </style>
 </defs>
<symbol id="Símbolo4" viewBox="88.5 -2389.51 3504.6 2478">
 <polygon class="fil0" points="88.5,88.4953 3593.1,88.4953 3593.1,-2389.51 88.5,-2389.51 "/>
</symbol>
<symbol id="Símbolo3" viewBox="88.5 -2389.51 3504.6 2478">
 <polygon class="fil0" points="88.5,88.4953 3593.1,88.4953 3593.1,-2389.51 88.5,-2389.51 "/>
</symbol>
<symbol id="Fm0-136-0" viewBox="88.5 -2389.51 3504.6 2478">
 <polygon class="fil0" points="88.5,88.4953 3593.1,88.4953 3593.1,-2389.51 88.5,-2389.51 "/>
</symbol>
<symbol id="Símbolo2" viewBox="88.5 -2389.51 3504.6 2478">
 <polygon class="fil0" points="88.5,88.4953 3593.1,88.4953 3593.1,-2389.51 88.5,-2389.51 "/>
</symbol>
<symbol id="Símbolo1" viewBox="88.5 -2389.51 3504.6 2478">
 <polygon class="fil0" points="88.5,88.4953 3593.1,88.4953 3593.1,-2389.51 88.5,-2389.51 "/>
</symbol>
 <g id="Capa_x0020_1">
  <metadata id="CorelCorpID_0Corel-Layer"/>
  <path class="fil1" d="M132.588 62.1471c-1.56114,-1.78652 -3.8173,-2.80604 -6.18556,-2.80604l-27.2368 0 2.8261 -16.664 20.7432 0 0 -16.4716 -28.7944 0c-4.01672,0 -7.45052,2.90162 -8.12076,6.85934l-4.45804 26.2762 -30.7591 0c-2.3777,0 -4.63386,1.0325 -6.20326,2.8143 -1.56114,1.7936 -2.27622,4.17012 -1.95644,6.52658l9.34206 74.976c0.5487,4.08752 4.03796,7.13546 8.15852,7.13546l56.6223 0c4.13354,0 7.62162,-3.07272 8.16678,-7.17322l9.8294 -74.976c0.30326,-2.34702 -0.40474,-4.72 -1.97414,-6.49708zm-24.3481 70.7422l-39.2586 0 -6.62334 -56.1692 53.205 0 -7.32308 56.1692z"/>
 </g>
</svg>
